<svg xmlns="http://www.w3.org/2000/svg" width="24" height="24" viewBox="0 0 24 24">
  <path id="phone_icon_header" d="M19.594,24H0V4.406A4.412,4.412,0,0,1,4.406,0H24V19.594A4.411,4.411,0,0,1,19.594,24Zm-1.4-1.962h-.03l-.091-.012c-.054-.016-.123-.03-.2-.048a4.936,4.936,0,0,1-.883-.262A26.759,26.759,0,0,1,2.217,6.872a4.121,4.121,0,0,1-.059-3.326A4.331,4.331,0,0,1,4.853,1.329a2.2,2.2,0,0,1,1.5,0c1.129.415,3.806,4.066,3.872,5.279A2.206,2.206,0,0,1,9.016,8.55c-.776.527-.913,1.149-.471,2.143a9.053,9.053,0,0,0,4.73,4.6,1.157,1.157,0,0,0,1.668-.372,2.657,2.657,0,0,1,1.68-1.271,3.019,3.019,0,0,1,2.3.689l.344.241c.538.375,1.093.763,1.615,1.183.1.081.2.159.307.238.777.594,1.744,1.333,1.213,2.833a5.069,5.069,0,0,1-4.2,3.2ZM5.61,1.913a1.665,1.665,0,0,0-.529.092A3.644,3.644,0,0,0,2.808,3.843a3.431,3.431,0,0,0,.07,2.76A26.071,26.071,0,0,0,17.269,21.06a4.268,4.268,0,0,0,.757.221l.186.043A4.411,4.411,0,0,0,21.724,18.6c.34-.961-.149-1.4-.975-2.027-.108-.083-.216-.165-.32-.249-.5-.405-1.049-.786-1.576-1.153l-.346-.242a2.375,2.375,0,0,0-1.752-.572,1.961,1.961,0,0,0-1.217.964,1.87,1.87,0,0,1-2.558.628,9.742,9.742,0,0,1-5.087-4.964,2.175,2.175,0,0,1,.723-3.024c.606-.411.929-.741.9-1.307C9.462,5.713,6.98,2.324,6.108,2a1.444,1.444,0,0,0-.5-.09ZM.714,23.286H19.594a3.7,3.7,0,0,0,3.692-3.692V.715H4.406A3.7,3.7,0,0,0,.714,4.406V23.286Z" transform="translate(0 0)" fill="#fff"/>
</svg>
