<svg xmlns="http://www.w3.org/2000/svg" width="58" height="58" viewBox="0 0 58 58">
    <path id="Facebook_footer"
        d="M47.349,58H0V10.651A10.652,10.652,0,0,1,10.651,0H58V47.349A10.645,10.645,0,0,1,47.349,58ZM33.118,52.445H22.1V29.816H17.627v-9.6H22.1V15.846c0-4.976,2.707-10.3,10.3-10.3l7.769.03v9.362H34.308c-1.191,0-1.191,1.032-1.191,1.375v3.9h7.255l-.985,9.593H33.122v22.63Zm-9.4-1.606h7.8V28.21h6.424l.655-6.377H31.512V16.325a2.709,2.709,0,0,1,2.8-2.981h4.253V7.191l-6.167-.026c-8.056,0-8.681,6.651-8.681,8.69v5.974H19.238v6.385h4.475v22.63ZM1.739,56.266H47.353a8.919,8.919,0,0,0,8.916-8.916V1.734H10.655a8.912,8.912,0,0,0-8.916,8.916V56.266Z">
    </path>
</svg>