<svg xmlns="http://www.w3.org/2000/svg" width="58" height="58" viewBox="0 0 58 58">
    <path id="Instagram_footer" data-name="Instagram footer"
        d="M15.846,50.006a9.276,9.276,0,0,1-8-8.842c-.5-5.713-.951-21.42.4-26.286A9.091,9.091,0,0,1,16.1,7.984c5.724-.895,20.615-.973,26.226.093a9.33,9.33,0,0,1,7.866,8.761c.752,7.4.468,15.942.107,23.35a9.807,9.807,0,0,1-9.089,10c-5.967.587-19.681.845-25.361-.185ZM47.358,58H.01V10.652A10.657,10.657,0,0,1,10.661,0H58.01V47.348A10.651,10.651,0,0,1,47.358,58ZM1.745,56.265H47.358a8.916,8.916,0,0,0,8.916-8.916V1.736H10.661a8.91,8.91,0,0,0-8.916,8.916V56.265ZM42.479,19.493h-.024a3.917,3.917,0,0,1-2.783-1.182,3.862,3.862,0,0,1-1.129-2.758,3.924,3.924,0,0,1,3.89-3.874,3.811,3.811,0,0,1,2.793,1.12,3.867,3.867,0,0,1,1.132,2.763,3.92,3.92,0,0,1-1.16,2.8,3.829,3.829,0,0,1-2.719,1.127Zm-.024-6.068h-.012a2.146,2.146,0,0,0-2.153,2.141,2.117,2.117,0,0,0,.626,1.518,2.186,2.186,0,0,0,1.549.664,1.923,1.923,0,0,0,1.5-.62,2.187,2.187,0,0,0,.646-1.563A2.139,2.139,0,0,0,44,14.038a2.161,2.161,0,0,0-1.542-.614ZM29.005,42.83h0a13.658,13.658,0,0,1-9.79-4.054,13.926,13.926,0,0,1-4.005-9.88,13.492,13.492,0,0,1,4.079-9.7,13.957,13.957,0,0,1,9.844-3.987h.011a13.81,13.81,0,0,1-.134,27.619Zm.124-25.871a12.22,12.22,0,0,0-8.621,3.488,11.754,11.754,0,0,0-3.556,8.45,12.2,12.2,0,0,0,3.5,8.652A11.928,11.928,0,0,0,29,41.085h0a12.063,12.063,0,0,0,.134-24.126h-.011Zm-.111,21.327h-.01a9.267,9.267,0,0,1,.012-18.533h0a9.267,9.267,0,0,1,0,18.533ZM29.024,21.5h0a7.52,7.52,0,1,0-.009,15.041h.008a7.52,7.52,0,0,0,.005-15.04ZM16.366,9.71a7.355,7.355,0,0,0-6.432,5.635c-1.269,4.546-.823,20.223-.343,25.666a7.542,7.542,0,0,0,6.568,7.276c5.945,1.085,18.594.787,24.876.163A8.333,8.333,0,0,0,45.5,46.727,8.45,8.45,0,0,0,48.552,40.1c.355-7.319.641-15.77-.1-23.084-.4-3.944-2.693-6.508-6.454-7.224-4.934-.939-20.574-.87-25.631-.083Z"
        transform="translate(-0.01)"></path>
</svg>