<svg xmlns="http://www.w3.org/2000/svg" width="24" height="24" viewBox="0 0 24 24">
  <path id="mobile_icon_header" d="M19.592,24.01H0V4.418A4.407,4.407,0,0,1,4.408.01H24V19.6a4.407,4.407,0,0,1-4.408,4.408ZM7.2,4.949h9.942V3.794a.749.749,0,0,0-.22-.531.762.762,0,0,0-.535-.224H7.952A.75.75,0,0,0,7.2,3.79V4.945Zm9.942,13.574H7.2V20.27a.75.75,0,0,0,.751.751H16.38a.749.749,0,0,0,.531-.22.762.762,0,0,0,.224-.535V18.519Zm0-13H7.2V17.948h9.942V5.52ZM12.168,18.875a.869.869,0,1,1-.867.867.87.87,0,0,1,.867-.867ZM10.158,4.442h4.016a.5.5,0,0,0,.5-.5h0a.5.5,0,0,0-.5-.5H10.158a.5.5,0,0,0-.5.5h0a.5.5,0,0,0,.5.5ZM16.384,21.6H7.952a1.31,1.31,0,0,1-.939-.392,1.34,1.34,0,0,1-.392-.939V3.79A1.337,1.337,0,0,1,7.952,2.46h8.432A1.337,1.337,0,0,1,17.714,3.79V20.266A1.337,1.337,0,0,1,16.384,21.6ZM.715,23.291H19.592A3.684,3.684,0,0,0,23.281,19.6V.725H4.4A3.684,3.684,0,0,0,.715,4.414V23.291Z" transform="translate(0 -0.01)" fill="#fff"/>
</svg>
