<svg xmlns="http://www.w3.org/2000/svg" width="24" height="24.001" viewBox="0 0 24 24.001">
  <path id="address_icon_heder" d="M19.594,23.634v-.357H.714V4.4A3.693,3.693,0,0,1,4.406.7H23.287V19.584a3.693,3.693,0,0,1-3.692,3.693v.714A4.406,4.406,0,0,0,24,19.584V-.01H4.406A4.406,4.406,0,0,0,0,4.4V23.991H19.594v-.357ZM16.087,9.046h-.344A4.041,4.041,0,1,1,14.563,6.2a4.018,4.018,0,0,1,1.18,2.851h.687a4.744,4.744,0,1,0-1.391,3.364,4.752,4.752,0,0,0,1.391-3.364h-.344ZM11.67,22.966a.354.354,0,0,1-.18-.123,67.68,67.68,0,0,1-6.277-9.788c-2.738-5.755.3-11.336,6.456-11.4,6.155.062,9.194,5.643,6.456,11.4a67.68,67.68,0,0,1-6.277,9.788.349.349,0,0,1-.18.123Zm0-20.6c-5.234.062-8.311,4.812-6.056,9.846a34.807,34.807,0,0,0,2.078,3.85c1.531,2.5,3.233,4.835,3.978,5.831.745-1,2.447-3.327,3.978-5.831a34.865,34.865,0,0,0,2.078-3.85C19.982,7.183,16.9,2.432,11.67,2.37Z" transform="translate(-0.001 0.01)" fill="#fff"/>
</svg>
