<svg xmlns="http://www.w3.org/2000/svg" width="57.998" height="58" viewBox="0 0 57.998 58">
    <path id="VK_footer" data-name="VK footer"
        d="M47.348,57.99H0V10.642A10.655,10.655,0,0,1,10.65-.01H58V47.338a10.647,10.647,0,0,1-10.65,10.65ZM51.03,14.855c-.3-.33-2.27-.316-4.234-.3h-.084c-1.1.007-2.2.014-3.1.053a6.951,6.951,0,0,0-1.48.145c-.012,0-.549,1.419-1.248,3.278-.388,1.029-.824,2.181-1.268,3.28a40.043,40.043,0,0,1-2.8,5.777c-.913,1.463-1.868,2.391-2.783,2.371C31.741,29.408,31.876,23.933,32,19.12l.039-1.663a14.733,14.733,0,0,0-.169-3.056,1.514,1.514,0,0,0-.207-.648,5.391,5.391,0,0,0-2.183-1.039,9.555,9.555,0,0,0-3.95-.137,5.111,5.111,0,0,0-2.969,1.453l-.123.154c1.5.482,3.049,2.4,2.316,12.411a5.751,5.751,0,0,1-.68,2.092,2.106,2.106,0,0,1-1.1.945,1.828,1.828,0,0,1-1.709-.333,9.4,9.4,0,0,1-2.477-3.552c-.272-.566-.74-1.875-1.3-3.439-1.166-3.265-2.771-7.753-2.906-7.755l-.672-.024c-3.2-.116-6.218-.227-7.15.443-.178.128.243,1.586,1.106,3.981a124.294,124.294,0,0,0,5.273,11.869,43.5,43.5,0,0,0,5.948,9.531,14.569,14.569,0,0,0,7.9,4.9,21.6,21.6,0,0,0,3.35.125,4.317,4.317,0,0,0,1.653-.3c.128-.08-.084-.629-.029-1.516.147-2.379.354-5.642,2.547-6.194,1.147-.289,2.776,1.9,4.417,4.116a19.056,19.056,0,0,0,2.979,3.557,5.609,5.609,0,0,0,1.742.4,20.7,20.7,0,0,0,3.02.084c.366-.014.769-.019,1.166-.024,1.574-.017,3.075-.034,3.193-.964.289-2.3-2.092-5.275-4.14-7.835-1.581-1.976-2.984-3.731-3.1-5.136-.14-1.7,1.362-4.07,2.824-6.374.586-.921,1.164-1.834,1.576-2.593a40.487,40.487,0,0,0,2.432-5.068c.482-1.311.713-2.345.4-2.68ZM46.784,12.8c2.357-.017,4.714-.034,5.54.868.851.925.651,2.574-.048,4.478a42.671,42.671,0,0,1-2.542,5.3c-.484.892-1.056,1.791-1.632,2.7-1.306,2.058-2.649,4.176-2.557,5.287.072.877,1.316,2.434,2.716,4.186,2.261,2.829,4.895,6.121,4.511,9.153-.308,2.449-2.559,2.475-4.921,2.5-.361,0-.728.007-1.111.024a22.525,22.525,0,0,1-3.282-.092,7.154,7.154,0,0,1-2.355-.59c-.911-.47-2.253-2.28-3.584-4.073-1.289-1.735-2.567-3.456-2.579-3.453-.947.239-1.1,2.757-1.219,4.591-.087,1.391-.157,2.5-.79,2.9a5.619,5.619,0,0,1-2.5.564,23.709,23.709,0,0,1-3.726-.147l-.075-.01a16.26,16.26,0,0,1-8.859-5.461A44.975,44.975,0,0,1,11.563,31.6a125.8,125.8,0,0,1-5.35-12.055c-1.147-3.184-1.4-5.338-.477-6,1.422-1.022,4.736-.9,8.237-.774l.67.024c1.34.055,3.174,5.186,4.509,8.919.549,1.535,1.007,2.82,1.224,3.268a8.023,8.023,0,0,0,1.911,2.885l.133.1a.544.544,0,0,0,.161-.2A3.531,3.531,0,0,0,23,26.47c.759-10.382-.68-10.589-1.672-10.715l-.308-.041-.942-.161.236-.923a4.259,4.259,0,0,1,.923-1.747,6.843,6.843,0,0,1,3.988-2.032,11.336,11.336,0,0,1,4.692.157,7.135,7.135,0,0,1,2.9,1.417,2.8,2.8,0,0,1,.786,1.632,16.642,16.642,0,0,1,.2,3.432l-.039,1.672c-.1,3.988-.214,8.526.308,8.538.2,0,.663-.6,1.253-1.545a37.974,37.974,0,0,0,2.661-5.507c.472-1.166.887-2.261,1.253-3.239.836-2.217,1.477-3.909,2.1-4.227a6.529,6.529,0,0,1,2.2-.333c.892-.039,2.029-.046,3.167-.053h.084ZM1.735,56.255H47.348a8.919,8.919,0,0,0,8.917-8.917V1.725H10.652A8.911,8.911,0,0,0,1.735,10.64V56.252Z"
        transform="translate(0 0.01)"></path>
</svg>