<svg xmlns="http://www.w3.org/2000/svg" width="24" height="24.002" viewBox="0 0 24 24.002">
  <path id="time_icon_heder" d="M19.595,23.635v-.357H.714V4.4A3.69,3.69,0,0,1,4.405.708H23.286V19.587a3.69,3.69,0,0,1-3.692,3.692v.714A4.4,4.4,0,0,0,24,19.585V-.01H4.405A4.4,4.4,0,0,0,0,4.4V23.992H19.595v-.357ZM12.619,12.229a.662.662,0,1,1-.856-.852l2.073-5.971a.428.428,0,1,1,.81.277L12.7,11.291l3.234-1.144a.429.429,0,1,1,.285.81l-3.6,1.274ZM12,2.878A9.114,9.114,0,1,1,5.555,5.547,9.087,9.087,0,0,1,12,2.878Zm5.939,3.177a8.4,8.4,0,1,0,2.46,5.939,8.375,8.375,0,0,0-2.46-5.939Z" transform="translate(0 0.01)" fill="#fff"/>
</svg>
