<svg xmlns="http://www.w3.org/2000/svg" width="376" height="75.046" viewBox="0 0 376 75.046">
  <path id="All_you_need_footer" d="M324.153,70.167c-.053-.633-.107-1.265-.162-1.909-.042-.573-.157-1.147-.238-1.726-.09-.638-.244-1.288-.384-1.93-.011-.058-.007-.108-.015-.155-.551-.034-1.093-.082-1.654-.1-1.687-.084-3.39-.19-5.077-.346-3.422-.3-6.849-.633-10.279-.778-1.087-.047-2.178-.056-3.259-.067a.045.045,0,0,0-.005.037c-.227,2.039-.439,4.088-.652,6.138-.2,1.914-.448,3.835-.686,5.744v.007H298.28l.2-1.613c.228-1.761.458-3.511.651-5.265.191-1.694.36-3.384.553-5.066-.243,0-.474-.012-.716,0-.4-.012-.815-.023-1.22-.047a4.565,4.565,0,0,1-2.423-.606,2.293,2.293,0,0,1-.783-.852,1.9,1.9,0,0,1-.223-.7,6.369,6.369,0,0,1-.008-1.052q.041-.479.082-.959c.074-.8.138-1.588.2-2.387.139-1.648.253-3.3.332-4.954.085-1.614.181-3.231.292-4.837.1-1.4.26-2.8.455-4.2a1.549,1.549,0,0,1-.326-.462,1.771,1.771,0,0,1-.051-1.36,1.883,1.883,0,0,1,.524-.724c.13-.084.249-.166.381-.239a4.355,4.355,0,0,1,1.128-.4,5.137,5.137,0,0,1,.847-.141c.777-.055,1.552-.061,2.328-.056,1.4.015,2.775.009,4.169.013.241-.008.472,0,.7-.006a.665.665,0,0,0-.107-.053c-.826-.42-1.658-.864-2.457-1.338-.717-.416-1.46-.839-2.14-1.323a23.39,23.39,0,0,1-2.1-1.657,16.7,16.7,0,0,1-1.991-2.04A22.52,22.52,0,0,1,294.9,30.42a20.807,20.807,0,0,1-1.2-2.207,20.579,20.579,0,0,1-1.568-5.145,15.166,15.166,0,0,1-.105-2.937,13.465,13.465,0,0,1,.485-2.825c.114-.444.244-.868.385-1.293a13.934,13.934,0,0,1,1.322-2.951,18.712,18.712,0,0,1,1.171-1.7,23.294,23.294,0,0,1,2.012-2.216,13.582,13.582,0,0,1,2.629-2.084A14.068,14.068,0,0,1,303.2,5.717a8.2,8.2,0,0,1,1.747-.387c.623-.039,1.247-.067,1.867-.058.449,0,.891.034,1.334.075a15.138,15.138,0,0,1,2.045.322,21.062,21.062,0,0,1,4.2,1.339c.647.3,1.286.617,1.908.977.337.193.687.385,1.017.6.4.291.817.568,1.232.857.371.248.716.549,1.057.827.3.238.571.478.847.732.4.34.791.693,1.174,1.072.294.287.609.557.882.859l1.038,1.122c.3.322.557.675.838,1.024a16.545,16.545,0,0,1,1.8,2.705,17.182,17.182,0,0,1,1.263,2.91c.6,1.831,1.044,3.712,1.466,5.587.187.838.372,1.665.534,2.5.145.809.268,1.623.39,2.437a1.7,1.7,0,0,1,.221-.184c.315-.2.632-.393.949-.583a6.934,6.934,0,0,1,.918-.42,8.708,8.708,0,0,1,2.646-.646,7.493,7.493,0,0,1,.882-.013c.014.01.037.006.063.013a5.387,5.387,0,0,1,1.585.393,5.584,5.584,0,0,1,.987.573c.017-.379.037-.733.068-1.1h0c.042-.71.072-1.419.151-2.123s.134-1.406.263-2.107a43.7,43.7,0,0,1,1.271-5.656c.256-.8.5-1.6.778-2.4.3-.878.633-1.737.974-2.6a13.539,13.539,0,0,1,.654-1.414c.318-.59.626-1.167.985-1.728a19.128,19.128,0,0,1,1.943-2.53c.69-.742,1.368-1.482,2.077-2.191a22.75,22.75,0,0,1,4.192-3.432,19.417,19.417,0,0,1,2.25-1.229A22.359,22.359,0,0,1,356.483.788a16.477,16.477,0,0,1,3.273-.662A17,17,0,0,1,362.974.1a7.221,7.221,0,0,1,.856.112,12.094,12.094,0,0,1,3.417,1.008A13.072,13.072,0,0,1,370.4,3.273a13.765,13.765,0,0,1,2.37,2.94,18.549,18.549,0,0,1,1.721,3.506,32.049,32.049,0,0,1,.965,3.073,17.441,17.441,0,0,1,.3,7.094A22.053,22.053,0,0,1,375.018,23c-.12.409-.229.817-.376,1.206a25.1,25.1,0,0,1-.964,2.451c-.265.544-.517,1.1-.819,1.637-.209.389-.429.78-.65,1.171-.4.739-.876,1.455-1.33,2.165a41.5,41.5,0,0,1-2.728,3.956,35.871,35.871,0,0,1-3.618,3.922,28.422,28.422,0,0,1-3.314,2.583c1.619.18,3.233.4,4.831.729.969.2,1.931.428,2.894.666a13.7,13.7,0,0,1,2.224.714,7.15,7.15,0,0,1,.7.311,6.818,6.818,0,0,1,.725.39,4.466,4.466,0,0,1,.638.515,2.624,2.624,0,0,1,.645,1.023,4.353,4.353,0,0,1,.2.764c.014.215.018.433.032.648.012.737-.073,1.479-.134,2.217-.285,3.261-.521,6.526-.82,9.779a36.448,36.448,0,0,1-.736,5.2,3.1,3.1,0,0,1-1.151,2.085,2.4,2.4,0,0,1-.9.4,1.734,1.734,0,0,1-.425.064c-.276.013-.564.029-.842.031-.365-.007-.732-.026-1.1-.033,0,.11,0,.218,0,.328-.009.692-.017,1.384-.016,2.062.007,1.452.061,2.9.066,4.337l0,.763h-3.675l0-.174c-.012-1.548-.073-3.1-.109-4.645-.016-.966,0-1.938,0-2.894-.826-.082-1.65-.151-2.476-.233-1.688-.157-3.383-.288-5.078-.418-1.635-.13-3.265-.236-4.9-.389-1.7-.154-3.411-.307-5.12-.447-2.288-.193-4.587-.312-6.881-.408,0,2.907.052,5.806.092,8.718l.012.892H336.66c-.01-.936-.026-1.861-.035-2.8-.034-2.271-.072-4.639-.079-6.963-2.589-.115-5.23-.318-7.773-.514l-1.817-.133,0,.012c.088.42.18.864.235,1.3.032.176.054.366.085.542.062.413.124.825.163,1.243.115,1.312.229,2.685.257,4.048.021,1.174.027,2.253.016,3.262H324.2c.025-1.206.024-2.409,0-3.615-.018-.433-.023-.868-.052-1.3ZM2.738,54.544h8.369V65.957h2.748V48.584c0-5.283-2.494-7.9-6.932-7.9-4.227,0-6.932,2.663-6.932,7.9V65.957H2.738V54.544Zm0-2.747V48.584c0-3.381,1.226-5.157,4.185-5.157,3.044,0,4.184,1.818,4.184,5.157V51.8H2.738ZM18.25,38.567V58.222c0,5.791,2.071,7.82,7.566,8.115V63.59C22.139,63.59,21,62.364,21,58.222V38.567Zm9.595,0V58.222c0,5.791,2.071,7.82,7.566,8.115V63.59c-3.677,0-4.818-1.226-4.818-5.368V38.567ZM45.724,41.06l7.44,13.526v11.37h2.747V54.587L63.393,41.06H60.349L54.685,51.966,49.064,41.06H45.725Zm25.235,5.115c-4.565,0-7.017,2.7-7.017,8.116v3.931c0,5.368,2.325,8.115,6.932,8.115,4.692,0,6.932-2.62,6.932-7.9V54.249c0-5.326-2.2-8.073-6.847-8.073Zm-.084,2.747c3.043,0,4.184,1.987,4.184,5.453v3.762c0,3.508-1.226,5.452-4.184,5.452s-4.185-1.9-4.185-5.452V54.375c0-3.551,1.226-5.453,4.185-5.453ZM82.2,46.556v11.92c0,5.283,2.494,7.861,6.932,7.861,4.142,0,6.932-2.494,6.932-7.861V46.556H93.319v11.92c0,3.339-1.183,5.114-4.185,5.114-3.086,0-4.185-1.817-4.185-5.114V46.556Zm31.574,19.4V54.037c0-3.213,1.057-5.115,4.185-5.115,3.086,0,4.185,1.818,4.185,5.115v11.92h2.748V54.037c0-5.283-2.494-7.862-6.933-7.862-4.185,0-6.932,2.536-6.932,7.862v11.92Zm29.377-10.1V53.868c0-5.2-2.663-7.692-6.806-7.692-4.269,0-7.059,2.579-7.059,7.862v4.48c0,4.988,2.536,7.44,7.692,7.44h1.648V63.209h-1.648c-3.8,0-4.945-1.226-4.945-4.861V55.855h11.117Zm-11.117-2.747c.212-2.664,1.352-4.185,4.185-4.185a3.806,3.806,0,0,1,4.184,4.185h-8.369Zm28.658,2.747V53.868c0-5.2-2.663-7.692-6.806-7.692-4.269,0-7.059,2.579-7.059,7.862v4.48c0,4.988,2.536,7.44,7.692,7.44h1.648V63.209h-1.648c-3.8,0-4.945-1.226-4.945-4.861V55.855h11.117Zm-11.117-2.747c.212-2.664,1.352-4.185,4.185-4.185a3.806,3.806,0,0,1,4.184,4.185h-8.369Zm25.91-14.541v9.722a5.6,5.6,0,0,0-4.649-2.113c-4.143,0-6.467,2.663-6.467,7.9v4.354c0,5.241,2.156,7.9,6.805,7.9s7.059-2.62,7.059-7.735V38.566h-2.747ZM171.3,48.922c2.705,0,4.185,1.733,4.185,5.157v4.354c0,3.424-1.268,5.156-4.185,5.156-3.17,0-4.185-1.86-4.185-5.156V54.079c0-3.382,1.226-5.157,4.185-5.157Zm24.642-2.366H193.2v19.4h2.747v-19.4Zm0-7.989H193.2v5.073h2.747Zm11.5,7.989h-1.522c-4.269,0-6.636,2.24-6.636,5.41a5.212,5.212,0,0,0,5.453,5.453h.55c2.24,0,3.339,1.141,3.339,3.043,0,1.945-1.352,2.747-3.931,2.747H203.13v2.747h1.522c4.354,0,6.721-1.944,6.721-5.664,0-3.846-2.579-5.621-5.326-5.621h-.423c-2.282,0-3.593-.972-3.593-2.706s1.4-2.663,3.931-2.663h1.48V46.556Zm23.036,25.656h1.015c5.791,0,7.65-2.959,7.65-8.242V54.248c0-5.326-2.2-8.073-6.932-8.073-4.692,0-6.932,2.747-6.932,8.116v3.931c0,5.537,2.621,8.115,6.552,8.115A5.662,5.662,0,0,0,236.4,64.35c0,3.635-1.437,5.114-4.988,5.114h-.93v2.747Zm1.733-23.29c3.044,0,4.185,1.987,4.185,5.453v3.762c0,3.508-1.226,5.452-4.185,5.452s-4.185-1.9-4.185-5.452V54.375c0-3.551,1.226-5.453,4.185-5.453Zm14.075-2.366h-2.747v19.4h2.747Zm0-7.989h-2.747v5.073h2.747Zm12.681-.38c-5.579,0-7.608,2.832-7.608,8.58V52.43h-2.2v2.747h2.2V72.212h2.747V55.178H257.7V52.43h-3.593V46.766c0-4.1.8-5.833,4.861-5.833Zm4.4,2.874h-2.747V52.43H258.46v2.747h2.156v2.79c0,6.256,2.282,8.031,7.65,8.369V63.589c-4.185,0-4.9-1.944-4.9-5.621v-2.79H267V52.43h-3.635Zm14.075,5.5h-1.522c-4.269,0-6.636,2.24-6.636,5.41a5.213,5.213,0,0,0,5.453,5.453h.55c2.24,0,3.339,1.141,3.339,3.043,0,1.945-1.353,2.747-3.931,2.747h-1.564v2.747h1.522c4.354,0,6.721-1.944,6.721-5.664,0-3.846-2.579-5.621-5.326-5.621h-.423c-2.282,0-3.593-.972-3.593-2.706s1.4-2.663,3.931-2.663h1.48V46.556Zm10.017-5.5h-2.747v17.8h2.747Zm0,20.543h-2.747v4.354h2.747ZM341.92,31.257h0c.45-.529.9-1.059,1.359-1.6l.211-.244c1.716-2.041,3.516-4.085,5.245-6.056l.292-.332a1.5,1.5,0,0,1,.946-.594,1.47,1.47,0,0,1,.4-.023,1.507,1.507,0,0,1,1.324,1.227,1.454,1.454,0,0,1-.258,1.125c-1.879,2.143-3.727,4.257-5.537,6.388l-.411.474q-1.052,1.224-2.067,2.444l-.349.414c-.548.656-1.118,1.328-1.608,2.034-.018.911-.036,1.823-.041,2.733,0,.012,0,.012,0,.024.121-.131.232-.26.354-.391a.36.36,0,0,0,.072-.073c.258-.252.493-.489.718-.723.064-.048.114-.106.166-.151.215-.221.431-.429.616-.62,1.042-1.012,2.2-2.1,3.634-3.429,2.724-2.5,5.543-4.874,8.267-7.169a1.389,1.389,0,0,1,1.092-.33,1.5,1.5,0,0,1,.83,2.661l-.349.281c-2.543,2.154-5.175,4.36-7.668,6.663-1.976,1.809-4.069,3.773-6.026,5.821.035-.006.072,0,.108-.007.1.006.184.015.283.022.584.016,1.157.034,1.713.031,1.627.022,3.344,0,5.247-.06l.6-.012c1.193-.033,2.422-.072,3.633-.072a7.991,7.991,0,0,0,1.054-.2,10.758,10.758,0,0,0,1.917-.927,32.506,32.506,0,0,0,2.973-2.122,30.557,30.557,0,0,0,2.72-2.525,31.359,31.359,0,0,0,3.133-3.992c.964-1.506,1.885-2.992,2.716-4.426l.036-.067c.2-.375.41-.752.583-1.135.3-.647.552-1.238.778-1.8a27.11,27.11,0,0,0,1.164-3.7,18.274,18.274,0,0,0,.427-4.087,15.242,15.242,0,0,0-.589-3.54l-.125-.426-.127-.437-.094-.25c-.16-.419-.313-.864-.5-1.291-.042-.1-.085-.2-.13-.315-.084-.2-.169-.406-.267-.607-.29-.6-.615-1.2-.959-1.765a12.884,12.884,0,0,0-1.477-1.878,11.842,11.842,0,0,0-1.788-1.253A11.255,11.255,0,0,0,364,4.132a15.1,15.1,0,0,0-1.5-.239,1.857,1.857,0,0,0-.257-.014c-.478-.035-.953-.047-1.473-.038a18.841,18.841,0,0,0-2.492.352c-.293.052-.592.143-.869.217l-.278.074-.045.02c-.252.082-.515.166-.763.271-.136.049-.259.107-.4.156a6.369,6.369,0,0,0-.776.334c-.134.06-.258.119-.392.179a6.382,6.382,0,0,0-.753.39l-.417.245-.406.231-.064.048A22.358,22.358,0,0,0,351.1,7.9c-.093.089-.2.18-.3.273-.25.227-.5.454-.748.692l-.865.847-.1.1-.029.042-.012,0-.122.131c-.265.278-.541.558-.79.857a21.647,21.647,0,0,0-2.551,3.524,36.883,36.883,0,0,0-1.767,4.449c-.354,1-.64,2.03-.919,3.037l-.145.535c-.158.67-.32,1.39-.443,2.115-.028.114-.042.238-.07.352-.045.287-.1.575-.145.874-.05.529-.125,1.052-.175,1.582-.092.768-.149,1.529-.191,2.3-.012.269-.026.525-.04.783-.034.418-.056.834-.08,1.238l.012,0c.11-.129.2-.242.309-.37ZM298.839,60.03h0c.536.012,1.069.013,1.6.026,1.043.006,2.076.026,3.119.032,2.074.014,4.142.066,6.216.214,3.436.242,6.857.607,10.285.813,1,.061,2.007.111,3.021.158-.009-.119-.017-.227-.014-.348a20.99,20.99,0,0,1,.041-2.127c.07-1.563.149-3.14.329-4.7a58.782,58.782,0,0,1,2.307-10c-2.527-.175-5.054-.35-7.577-.573-1.7-.143-3.4-.3-5.1-.452-1.638-.153-3.279-.318-4.922-.361-1.606-.038-3.214-.027-4.824-.016-1.427.014-2.866-.041-4.3-.013-.047.009-.1.005-.155.016-.192,1.355-.357,2.729-.45,4.091-.1,1.581-.2,3.149-.29,4.716q-.127,2.421-.331,4.82c-.049.736-.122,1.476-.185,2.2-.037.467-.1.939-.132,1.417a1.382,1.382,0,0,1,.172.017c.395.038.785.053,1.186.065Zm-2.4-35.363h0c.1.262.192.535.291.808.045.113.091.238.138.363a10.385,10.385,0,0,0,.516,1.119c.3.564.6,1.115.961,1.7l.114.161c.355.493.725,1,1.122,1.457.078.1.154.178.229.262a7.014,7.014,0,0,0,.5.552l.372.381.192.2c.458.39.885.749,1.335,1.092.38.3.793.572,1.191.827l.263.183c.909.611,1.865,1.142,2.846,1.68,1.618.847,3.088,1.612,4.589,2.275a28.036,28.036,0,0,0,4.588,1.6c1.055.21,1.943.365,2.8.489.311.041.607.072.915.1.691.07,1.387.1,1.987.139l1.465.063c.426.009.853.028,1.28.048s.892.045,1.348.084c.322.039.619.071.893.118l0-.012.031-.5a8.5,8.5,0,0,0-.831-.516l-.188-.1c-.467-.243-.949-.495-1.4-.777l-.136-.084c-.448-.271-.9-.553-1.34-.849l-.455-.306c-.8-.534-1.612-1.079-2.461-1.556-1.239-.625-2.458-1.205-3.606-1.725a45.83,45.83,0,0,0-4.563-1.661,1.544,1.544,0,0,1-.91-.818,1.8,1.8,0,0,1-.074-1.355,1.657,1.657,0,0,1,.874-.932,1.544,1.544,0,0,1,.859-.143,2.472,2.472,0,0,1,.452.088l.581.2a34.543,34.543,0,0,1,3.562,1.285c.974.43,1.941.886,2.881,1.335l.649.307a26.773,26.773,0,0,1,3.541,2.04c.953.652,1.813,1.188,2.62,1.636l-.008-.447a1.09,1.09,0,0,1-.2-.219,9.456,9.456,0,0,0-.709-.841c-.167-.188-.335-.376-.489-.566l-.22-.276a15.7,15.7,0,0,0-1.027-1.2,18.35,18.35,0,0,0-3.351-2.328c-1.357-.677-2.767-1.307-4.135-1.909-.844-.381-1.713-.77-2.573-1.172a1.693,1.693,0,0,1-.871-.8,1.673,1.673,0,0,1-.04-1.229,1.58,1.58,0,0,1,.814-.861,1.7,1.7,0,0,1,.833-.15,1.63,1.63,0,0,1,.382.1c1.282.593,2.6,1.18,3.863,1.739l.3.128.225.1a30.585,30.585,0,0,1,3.977,1.973,19.034,19.034,0,0,1,1.639,1.1c.281.216.549.422.808.654l.119.124c-.006-.036-.011-.059-.015-.082-.011-.059-.011-.131-.022-.19-.079-.373-.147-.749-.236-1.109-.549-2.445-1.039-4.428-1.531-6.217a17.774,17.774,0,0,0-1.585-3.421,20.056,20.056,0,0,0-2.134-2.705c-.467-.509-1-1.044-1.649-1.689l-.975-.842c-.232-.213-.485-.409-.725-.6a3.189,3.189,0,0,1-.325-.256c-.265-.194-.542-.387-.817-.568l-.207-.144c-.526-.366-1.032-.686-1.571-.989a20.031,20.031,0,0,0-4.363-1.625,15.406,15.406,0,0,0-1.842-.274,13.858,13.858,0,0,0-1.916-.079,8.685,8.685,0,0,0-1.819.328,13.24,13.24,0,0,0-2.288,1.017,16.523,16.523,0,0,0-2.574,2.257l-.091.1c-.232.26-.464.519-.67.787a17.919,17.919,0,0,0-1.2,1.754,18.026,18.026,0,0,0-.969,2.488c-.1.321-.185.651-.245.928a9.814,9.814,0,0,0-.227,1.773l-.01.753c.013.276.032.515.047.73.046.391.112.755.184,1.154a12.689,12.689,0,0,0,.41,1.538Zm33.8,37.1h0l.8.062c1.338.1,2.725.2,4.082.271.855.04,1.708.068,2.563.108.075-.523.128-1.041.193-1.549l.044-.359c.132-1.15.216-2.1.263-2.979.048-1.147.084-2.159.092-3.118.011-.886-.021-1.8-.058-2.678l0-.351-.007.1c-.008-.446-.036-.877-.054-1.31-.032-.782-.071-1.538-.106-2.271,0-.156-.006-.3-.022-.456-.037-.745-.072-1.477-.117-2.2-1.754-.12-3.537-.272-5.258-.41-1.17-.1-2.338-.2-3.517-.287a.37.37,0,0,1-.037.128c-.6,2.009-1.105,3.821-1.555,5.561-.276,1.225-.466,2.253-.619,3.225-.168,1.084-.28,2.146-.349,3.176l-.026.392c-.09,1.518-.193,3.1-.192,4.65.712.053,1.424.107,2.124.162.591.051,1.168.093,1.757.132ZM335.1,41.291h0c.91.079,1.822.157,2.73.224,0-.06,0-.121,0-.182a3.337,3.337,0,0,0,0-.339c.007-.232,0-.449.011-.681s0-.46,0-.7c0-.182.007-.365.008-.559,0-.229,0-.461.007-.7,0-.193,0-.376,0-.582.008-.426.014-.863.02-1.3a3.016,3.016,0,0,1-.241-.6c-.037-.138-.064-.291-.1-.43-.017-.094-.048-.2-.065-.292a5.494,5.494,0,0,0-.27-.557,5.817,5.817,0,0,0-.754-.894,7.2,7.2,0,0,0-.813-.617.748.748,0,0,1-.181-.064c-.112-.016-.211-.023-.322-.039a4.252,4.252,0,0,0-.427-.02,8.357,8.357,0,0,0-1.195.227,8.661,8.661,0,0,0-1.434.646,5.285,5.285,0,0,0-.56.452c-.168.212-.332.447-.493.695a9.392,9.392,0,0,0-.478,1.249c-.143.753-.262,1.574-.36,2.511.005.229-.012.475-.018.706l-.067,1.442c1.67.123,3.344.271,5,.407Zm15.145,21.682h0c1.685.145,3.374.3,5.066.42,1.644.116,3.288.232,4.936.371s3.287.293,4.935.431a1.937,1.937,0,0,1,1.052-.214,1.832,1.832,0,0,1,.9.347c.17.006.344.023.514.029.538.024,1.075.048,1.62.048,0-.012,0-.012.008-.025a37.241,37.241,0,0,0,.541-4.059c.13-1.429.224-2.863.328-4.3.09-1.386.164-2.791.254-4.177.077-1.322.2-2.641.233-3.954-.006-.036-.01-.059-.017-.094a19.329,19.329,0,0,0-3.655-1.2c-1.161-.263-2.317-.491-3.5-.655-1.357-.2-2.726-.406-4.089-.511-1.66-.137-3.323-.226-4.981-.218-1.756,0-3.516.051-5.275.1q-2.1.068-4.21.032c-.854.032-1.708.065-2.567.074a1.291,1.291,0,0,1-.654-.2c-.329-.013-.649-.041-.979-.054.089,1.571.164,3.132.23,4.707.074,1.622.148,3.244.126,4.871-.014,1.469-.1,2.926-.178,4.393-.039,1.062-.09,2.124-.179,3.182,3.185.129,6.366.369,9.541.645Z" transform="translate(0.01 -0.037)" fill="#1db9c3"/>
</svg>