<?xml version="1.0" encoding="UTF-8"?>
<!DOCTYPE svg PUBLIC "-//W3C//DTD SVG 1.1//EN" "http://www.w3.org/Graphics/SVG/1.1/DTD/svg11.dtd">
<!-- Creator: CorelDRAW 2018 (64-Bit) -->
<svg xmlns="http://www.w3.org/2000/svg" xml:space="preserve" width="945px" height="213px" version="1.1" style="shape-rendering:geometricPrecision; text-rendering:geometricPrecision; image-rendering:optimizeQuality; fill-rule:evenodd; clip-rule:evenodd"
viewBox="0 0 945 213.5"
 xmlns:xlink="http://www.w3.org/1999/xlink">
 <defs>
  <style type="text/css">
   <![CDATA[
    .fil0 {fill:#FEFEFE;fill-rule:nonzero}
   ]]>
  </style>
 </defs>
 <g id="Слой_x0020_1">
  <metadata id="CorelCorpID_0Corel-Layer"/>
  <g id="_2043657304768">
   <g>
    <path class="fil0" d="M172.4 0.01l-63.75 -0.01c-13.2,0.03 -28.57,-0.23 -40.27,6.4 -11.08,6.27 -19.09,18.37 -18.76,31.53 -0.09,10.38 0.11,22.6 0.04,31.59 -0.06,49.25 0.05,4.39 -0.01,53.63 14.42,0 24.56,-3.1 24.23,-24.19l0 -49.41c0.17,-19.86 10.35,-24.92 28.67,-24.92l45.22 0 0 62.46 0.01 58.76c-0.63,14.59 -9.82,23.41 -16.45,26.45 10,0.02 16.46,-0.01 16.46,-0.01 14.42,0 22.88,-11.94 24.61,-25.28l0 -147z"/>
    <path class="fil0" d="M0 172.3l63.76 0.01c13.2,-0.03 28.57,0.22 40.26,-6.4 11.08,-6.26 19.44,-18.16 19.11,-31.32 -0.03,-11.25 0.01,-19.56 0,-31.7 0.06,-49.24 -0.06,-4.38 0,-53.63 -14.43,0 -24.93,3 -24.6,24.08l-0.01 49.42c-0.17,19.86 -10.34,25.03 -28.67,25.03l-45.22 0 0 -62.57 0 -58.76c0.63,-14.59 9.82,-23.42 16.45,-26.45 -10,-0.02 -16.47,0.01 -16.47,0.01 -14.42,0 -24.3,12.02 -24.61,25.28l0 147z"/>
   </g>
   <path class="fil0" d="M813.63 37.99c-36.71,-0.7 -46.86,20.1 -46.86,58.83l0 51.58 0 -0.01c-3.12,15.35 -8.94,19.54 -22.27,24.24l24.29 -0.03c14.78,-1.42 15.81,-11.32 16.57,-24.3l0 -51.48c0,-27.98 3.55,-40.84 32.71,-40.42 0,-0.02 14.46,-0.01 21.46,-0.01 -4.02,-15.09 -21.65,-18.01 -25.9,-18.4zm-222.46 38.58c-11.12,-0.02 -22.24,-0.03 -33.37,-0.04 -1.08,-29.58 -22.52,-38.79 -40.79,-38.74 -12.49,0 -24.99,0.01 -37.48,0.01 8.43,3.62 14.97,9.65 17.34,18.72 16.41,-0.24 42.43,-2.2 42.43,19.94l-25.17 0.29c-34.03,0.38 -50.05,18.91 -50.05,47.47 0,29.72 16.87,48.76 48.34,48.76 15.09,0 25.85,-3.81 33.11,-11.13 4.01,3.7 10.32,8.34 17.33,11.13l-3.14 -19.65c-1.05,-11.44 -1.82,-20.84 -1.82,-32.27l0 -25.8c11.12,0.02 22.17,0.06 33.27,0.06l0 19.88c0,41.63 14.69,54.19 49.08,56.93 0,0.32 22.35,0.21 22.89,0.21 -10.92,-4.7 -15.38,-17.41 -16.16,-18.74 -29.18,0 -37.22,-7.73 -37.22,-38.4l0 -19.88 32.7 0 0 -18.75 -32.7 0 -0.02 -30.22 0.03 -27.38c-1.41,-3.34 -8.9,-13.12 -18.58,-18.97 0.04,25.53 -0.01,51.04 -0.02,76.57zm330.84 -0.12c-1.12,-29.51 -22.54,-38.71 -40.79,-38.66 -12.49,0 -24.99,0.01 -37.48,0.01 8.44,3.62 14.97,9.65 17.34,18.72 16.42,-0.24 42.43,-2.2 42.43,19.94l-25.17 0.29c-34.03,0.38 -50.05,18.91 -50.05,47.47 0,29.72 16.87,48.76 48.34,48.76 15.09,0 25.85,-3.81 33.11,-11.13 4.01,3.7 10.33,8.34 17.33,11.13l-3.14 -19.65c-1.05,-11.44 -1.82,-20.84 -1.82,-32.27l0 -25.94 2.99 0.03 19.9 0.03c-5.81,-9.76 -15.5,-17.31 -18.81,-18.73l-4.18 0zm-18.5 19l0 26.18c0,21.63 -8.29,32.6 -26.02,32.6 -19.17,0 -30.61,-11.25 -30.61,-30.01 0,-21.92 12.58,-28.72 32.89,-28.72 8.17,0 15.65,-0.19 23.74,-0.05zm-583.37 -65.31c0.08,-30.14 0,0 0.08,-30.14 11.4,5.26 16.98,12.17 18.3,24.04 0.42,0.1 0.29,19.7 0.27,24.52 -3.5,-7.86 -9.6,-13.66 -18.65,-18.42zm18.64 141.15c-11.37,-5.26 -16.95,-11.32 -18.27,-23.18 -0.63,-0.16 -0.27,-73.74 -0.3,-92.83 10.46,3.49 17.15,13.19 18.33,23.78l0.04 0.28 0.24 4.74 -0.04 87.21zm-117.27 -54.08c0,35.98 13.31,54.37 40.36,55.13l52.93 -0.01c-0.06,-0.23 -9.53,-1.77 -15.72,-18.63 -12.38,0 -25.56,0.67 -37.74,-0.28 -15.46,-2.57 -21.24,-15.29 -21.24,-36.79l0 -90.97c-1.12,-13.47 -6.73,-20.13 -18.45,-25.66 0.06,39.06 -0.14,78.06 -0.14,117.21zm181.08 -62.67c-20.02,0 -28.31,12.98 -28.31,37.22l0 25.67c0,24.24 8.29,37.22 28.31,37.22 20.03,0 28.32,-13.27 28.32,-37.22l0 -25.67c0,-23.66 -7.72,-37.22 -28.32,-37.22zm-4.4 140.2c23.27,-0.29 32.72,-10.44 32.72,-34.9 -7.72,8.66 -16.87,13.56 -30.89,13.56 -26.6,0 -44.33,-17.6 -44.33,-55.39l0 -26.83c0,-36.64 15.15,-55.39 46.9,-55.39 32.04,0 46.91,18.75 46.91,55.1l0 66.36c0,36.06 -12.58,56.25 -51.77,56.25 -2.29,0 -27.34,-0.02 -27.34,-0.03 5.8,-12.54 13.37,-18.22 27.59,-18.74l0.21 0.01zm141.11 -99.29l0 26.18c0,21.63 -8.29,32.6 -26.02,32.6 -19.17,0 -30.61,-11.25 -30.61,-30.01 0,-21.92 12.58,-28.72 32.89,-28.72 8.17,0 15.65,-0.19 23.74,-0.05zm117.57 23.87c0,36.06 16.87,53.66 46.9,53.66 28.03,0 46.9,-17.02 46.9,-53.66 0,-20.78 -0.05,-41.66 -0.05,-62.37 -1.42,-3.34 -8.9,-13.12 -18.58,-18.97 0.04,27.11 0.05,54.22 0.05,81.34 0,22.79 -8.01,34.9 -28.32,34.9 -20.88,0 -28.32,-12.4 -28.32,-34.9 0,-27.18 -0.14,-54.24 -0.09,-81.34 -9.68,5.85 -17.17,15.63 -18.58,18.97 0.01,20.72 0.09,41.54 0.09,62.37z"/>
  </g>
 </g>
</svg>
