<?xml version="1.0" encoding="utf-8"?><svg xmlns="http://www.w3.org/2000/svg" width="58" height="58" viewBox="0 0 58 58"><path d="M47.349 58H0V10.651A10.652 10.652 0 0110.651 0H58v47.349A10.645 10.645 0 0147.349 58zm-14.231-5.555H22.1V29.816h-4.473v-9.6H22.1v-4.37c0-4.976 2.707-10.3 10.3-10.3l7.769.03v9.362h-5.861c-1.191 0-1.191 1.032-1.191 1.375v3.9h7.255l-.985 9.593h-6.265v22.63zm-9.4-1.606h7.8V28.21h6.424l.655-6.377h-7.085v-5.508a2.709 2.709 0 012.8-2.981h4.253V7.191l-6.167-.026c-8.056 0-8.681 6.651-8.681 8.69v5.974h-4.479v6.385h4.475v22.63zM1.739 56.266h45.614a8.919 8.919 0 008.916-8.916V1.734H10.655a8.912 8.912 0 00-8.916 8.916v45.616z"/></svg>