<?xml version="1.0" encoding="utf-8"?><svg xmlns="http://www.w3.org/2000/svg" width="58" height="58" viewBox="0 0 58 58"><path data-name="Instagram footer" d="M15.836 50.006a9.276 9.276 0 01-8-8.842c-.5-5.713-.951-21.42.4-26.286a9.091 9.091 0 017.854-6.894c5.724-.895 20.615-.973 26.226.093a9.33 9.33 0 017.866 8.761c.752 7.4.468 15.942.107 23.35a9.807 9.807 0 01-9.089 10c-5.967.587-19.681.845-25.361-.185zM47.348 58H0V10.652A10.657 10.657 0 0110.651 0H58v47.348A10.651 10.651 0 0147.348 58zM1.735 56.265h45.613a8.916 8.916 0 008.916-8.916V1.736H10.651a8.91 8.91 0 00-8.916 8.916v45.613zm40.734-36.772h-.024a3.917 3.917 0 01-2.783-1.182 3.862 3.862 0 01-1.129-2.758 3.924 3.924 0 013.89-3.874 3.811 3.811 0 012.793 1.12 3.867 3.867 0 011.132 2.763 3.92 3.92 0 01-1.16 2.8 3.829 3.829 0 01-2.719 1.127zm-.024-6.068h-.012a2.146 2.146 0 00-2.153 2.141 2.117 2.117 0 00.626 1.518 2.186 2.186 0 001.549.664 1.923 1.923 0 001.5-.62 2.187 2.187 0 00.646-1.563 2.139 2.139 0 00-.611-1.527 2.161 2.161 0 00-1.542-.614zM28.995 42.83a13.658 13.658 0 01-9.79-4.054 13.926 13.926 0 01-4.005-9.88 13.492 13.492 0 014.079-9.7 13.957 13.957 0 019.844-3.987h.011A13.81 13.81 0 0129 42.828zm.124-25.871a12.22 12.22 0 00-8.621 3.488 11.754 11.754 0 00-3.556 8.45 12.2 12.2 0 003.5 8.652 11.928 11.928 0 008.548 3.536 12.063 12.063 0 00.134-24.126h-.011zm-.111 21.327h-.01a9.267 9.267 0 01.012-18.533 9.267 9.267 0 010 18.533zm.006-16.786a7.52 7.52 0 10-.009 15.041h.008a7.52 7.52 0 00.005-15.04zM16.356 9.71a7.355 7.355 0 00-6.432 5.635c-1.269 4.546-.823 20.223-.343 25.666a7.542 7.542 0 006.568 7.276c5.945 1.085 18.594.787 24.876.163a8.333 8.333 0 004.465-1.723 8.45 8.45 0 003.052-6.627c.355-7.319.641-15.77-.1-23.084-.4-3.944-2.693-6.508-6.454-7.224-4.934-.939-20.574-.87-25.631-.083z"/></svg>