<?xml version="1.0" encoding="utf-8"?><svg xmlns="http://www.w3.org/2000/svg" width="24" height="24.001" viewBox="0 0 24 24.001"><path d="M19.593 23.644v-.357H.713V4.41A3.693 3.693 0 014.405.71h18.881v18.884a3.693 3.693 0 01-3.692 3.693v.714a4.406 4.406 0 004.405-4.407V0H4.405A4.406 4.406 0 00-.001 4.41v19.591h19.594v-.357zM16.086 9.056h-.344a4.041 4.041 0 11-1.18-2.846 4.018 4.018 0 011.18 2.851h.687a4.744 4.744 0 10-1.391 3.364 4.752 4.752 0 001.391-3.364h-.344zm-4.417 13.92a.354.354 0 01-.18-.123 67.68 67.68 0 01-6.277-9.788c-2.738-5.755.3-11.336 6.456-11.4 6.155.062 9.194 5.643 6.456 11.4a67.68 67.68 0 01-6.277 9.788.349.349 0 01-.18.123zm0-20.6c-5.234.062-8.311 4.812-6.056 9.846a34.807 34.807 0 002.078 3.85c1.531 2.5 3.233 4.835 3.978 5.831.745-1 2.447-3.327 3.978-5.831a34.865 34.865 0 002.078-3.85c2.256-5.029-.826-9.78-6.056-9.842z" fill="#fff"/></svg>