<?xml version="1.0" encoding="utf-8"?><svg xmlns="http://www.w3.org/2000/svg" width="24" height="24" viewBox="0 0 24 24"><path d="M19.592 24H0V4.408A4.407 4.407 0 014.408 0H24v19.59a4.407 4.407 0 01-4.408 4.408zM7.2 4.939h9.942V3.784a.749.749 0 00-.22-.531.762.762 0 00-.535-.224H7.952a.75.75 0 00-.752.751v1.155zm9.942 13.574H7.2v1.747a.75.75 0 00.751.751h8.429a.749.749 0 00.531-.22.762.762 0 00.224-.535v-1.747zm0-13H7.2v12.425h9.942V5.51zm-4.974 13.352a.869.869 0 11-.867.867.87.87 0 01.867-.867zm-2.01-14.433h4.016a.5.5 0 00.5-.5.5.5 0 00-.5-.5h-4.016a.5.5 0 00-.5.5.5.5 0 00.5.5zm6.226 17.158H7.952a1.31 1.31 0 01-.939-.392 1.34 1.34 0 01-.392-.939V3.78a1.337 1.337 0 011.331-1.33h8.432a1.337 1.337 0 011.33 1.33v16.476a1.337 1.337 0 01-1.33 1.334zM.715 23.281h18.877a3.684 3.684 0 003.689-3.691V.715H4.4A3.684 3.684 0 00.715 4.404v18.877z" fill="#fff"/></svg>