<?xml version="1.0" encoding="utf-8"?><svg xmlns="http://www.w3.org/2000/svg" width="24" height="24.002" viewBox="0 0 24 24.002"><path d="M19.595 23.645v-.357H.714V4.41A3.69 3.69 0 014.405.718h18.881v18.879a3.69 3.69 0 01-3.692 3.692v.714A4.4 4.4 0 0024 19.595V0H4.405A4.4 4.4 0 000 4.41v19.592h19.595v-.357zm-6.976-11.406a.662.662 0 11-.856-.852l2.073-5.971a.428.428 0 11.81.277L12.7 11.301l3.234-1.144a.43.43 0 11.285.81l-3.6 1.274zM12 2.888a9.114 9.114 0 11-6.445 2.669A9.087 9.087 0 0112 2.888zm5.939 3.177a8.4 8.4 0 102.46 5.939 8.375 8.375 0 00-2.46-5.939z" fill="#fff"/></svg>