<?xml version="1.0" encoding="utf-8"?><svg viewBox="0 0 58 58" xmlns="http://www.w3.org/2000/svg" xmlns:xlink="http://www.w3.org/1999/xlink"><style>:root>svg{display:none}:root>svg:target{display:block}</style><svg viewBox="0 0 24 24" id="ic_call" xmlns="http://www.w3.org/2000/svg"><path d="M19.594 24H0V4.406A4.412 4.412 0 014.406 0H24v19.594A4.411 4.411 0 0119.594 24zm-1.4-1.962h-.03l-.091-.012c-.054-.016-.123-.03-.2-.048a4.936 4.936 0 01-.883-.262A26.759 26.759 0 012.217 6.872a4.121 4.121 0 01-.059-3.326 4.331 4.331 0 012.695-2.217 2.2 2.2 0 011.5 0c1.129.415 3.806 4.066 3.872 5.279A2.206 2.206 0 019.016 8.55c-.776.527-.913 1.149-.471 2.143a9.053 9.053 0 004.73 4.6 1.157 1.157 0 001.668-.372 2.657 2.657 0 011.68-1.271 3.019 3.019 0 012.3.689l.344.241c.538.375 1.093.763 1.615 1.183.1.081.2.159.307.238.777.594 1.744 1.333 1.213 2.833a5.069 5.069 0 01-4.2 3.2zM5.61 1.913a1.665 1.665 0 00-.529.092 3.644 3.644 0 00-2.273 1.838 3.431 3.431 0 00.07 2.76A26.071 26.071 0 0017.269 21.06a4.268 4.268 0 00.757.221l.186.043a4.411 4.411 0 003.512-2.724c.34-.961-.149-1.4-.975-2.027-.108-.083-.216-.165-.32-.249-.5-.405-1.049-.786-1.576-1.153l-.346-.242a2.375 2.375 0 00-1.752-.572 1.961 1.961 0 00-1.217.964 1.87 1.87 0 01-2.558.628 9.742 9.742 0 01-5.087-4.964 2.175 2.175 0 01.723-3.024c.606-.411.929-.741.9-1.307C9.462 5.713 6.98 2.324 6.108 2a1.444 1.444 0 00-.5-.09zM.714 23.286h18.88a3.7 3.7 0 003.692-3.692V.715H4.406A3.7 3.7 0 00.714 4.406v18.88z" fill="#fff"/></svg><svg viewBox="0 0 58 58" id="ic_fb" xmlns="http://www.w3.org/2000/svg"><path d="M47.349 58H0V10.651A10.652 10.652 0 0110.651 0H58v47.349A10.645 10.645 0 0147.349 58zm-14.231-5.555H22.1V29.816h-4.473v-9.6H22.1v-4.37c0-4.976 2.707-10.3 10.3-10.3l7.769.03v9.362h-5.861c-1.191 0-1.191 1.032-1.191 1.375v3.9h7.255l-.985 9.593h-6.265v22.63zm-9.4-1.606h7.8V28.21h6.424l.655-6.377h-7.085v-5.508a2.709 2.709 0 012.8-2.981h4.253V7.191l-6.167-.026c-8.056 0-8.681 6.651-8.681 8.69v5.974h-4.479v6.385h4.475v22.63zM1.739 56.266h45.614a8.919 8.919 0 008.916-8.916V1.734H10.655a8.912 8.912 0 00-8.916 8.916v45.616z"/></svg><svg viewBox="0 0 30 26" id="ic_heart" xmlns="http://www.w3.org/2000/svg"><path d="M21.494.582a8.43 8.43 0 00-6.494 3 8.316 8.316 0 00-6.494-3A8.506 8.506 0 000 9.088C0 17.138 14.05 25 14.62 25.303c.23.154.53.154.76 0C15.95 25 30 17.253 30 9.088A8.506 8.506 0 0021.494.582zM15 23.784C12.797 22.494 1.519 15.62 1.519 9.088a6.987 6.987 0 016.987-6.987 6.835 6.835 0 015.848 3.152.798.798 0 001.292 0A6.987 6.987 0 0128.48 9.088c0 6.608-11.279 13.443-13.481 14.696z"/></svg><svg viewBox="0 0 24 24" id="ic_heart-solid" xmlns="http://www.w3.org/2000/svg"><path d="M17.192 2.565h.003A6.305 6.305 0 0123.5 8.87c0 1.49-.643 3.002-1.672 4.46-1.027 1.455-2.41 2.818-3.826 4.001-2.83 2.366-5.721 3.957-5.933 4.07l-.022.012-.02.014a.047.047 0 01-.053 0l-.02-.014-.023-.012c-.21-.111-3.1-1.726-5.932-4.103-1.416-1.189-2.8-2.555-3.827-4.007C1.142 11.836.5 10.336.5 8.871a6.305 6.305 0 016.305-6.306h.006a6.153 6.153 0 014.804 2.22l.383.46.384-.458a6.244 6.244 0 014.81-2.222z"/></svg><svg viewBox="0 0 58 58" id="ic_ig" xmlns="http://www.w3.org/2000/svg"><path data-name="Instagram footer" d="M15.836 50.006a9.276 9.276 0 01-8-8.842c-.5-5.713-.951-21.42.4-26.286a9.091 9.091 0 017.854-6.894c5.724-.895 20.615-.973 26.226.093a9.33 9.33 0 017.866 8.761c.752 7.4.468 15.942.107 23.35a9.807 9.807 0 01-9.089 10c-5.967.587-19.681.845-25.361-.185zM47.348 58H0V10.652A10.657 10.657 0 0110.651 0H58v47.348A10.651 10.651 0 0147.348 58zM1.735 56.265h45.613a8.916 8.916 0 008.916-8.916V1.736H10.651a8.91 8.91 0 00-8.916 8.916v45.613zm40.734-36.772h-.024a3.917 3.917 0 01-2.783-1.182 3.862 3.862 0 01-1.129-2.758 3.924 3.924 0 013.89-3.874 3.811 3.811 0 012.793 1.12 3.867 3.867 0 011.132 2.763 3.92 3.92 0 01-1.16 2.8 3.829 3.829 0 01-2.719 1.127zm-.024-6.068h-.012a2.146 2.146 0 00-2.153 2.141 2.117 2.117 0 00.626 1.518 2.186 2.186 0 001.549.664 1.923 1.923 0 001.5-.62 2.187 2.187 0 00.646-1.563 2.139 2.139 0 00-.611-1.527 2.161 2.161 0 00-1.542-.614zM28.995 42.83a13.658 13.658 0 01-9.79-4.054 13.926 13.926 0 01-4.005-9.88 13.492 13.492 0 014.079-9.7 13.957 13.957 0 019.844-3.987h.011A13.81 13.81 0 0129 42.828zm.124-25.871a12.22 12.22 0 00-8.621 3.488 11.754 11.754 0 00-3.556 8.45 12.2 12.2 0 003.5 8.652 11.928 11.928 0 008.548 3.536 12.063 12.063 0 00.134-24.126h-.011zm-.111 21.327h-.01a9.267 9.267 0 01.012-18.533 9.267 9.267 0 010 18.533zm.006-16.786a7.52 7.52 0 10-.009 15.041h.008a7.52 7.52 0 00.005-15.04zM16.356 9.71a7.355 7.355 0 00-6.432 5.635c-1.269 4.546-.823 20.223-.343 25.666a7.542 7.542 0 006.568 7.276c5.945 1.085 18.594.787 24.876.163a8.333 8.333 0 004.465-1.723 8.45 8.45 0 003.052-6.627c.355-7.319.641-15.77-.1-23.084-.4-3.944-2.693-6.508-6.454-7.224-4.934-.939-20.574-.87-25.631-.083z"/></svg><svg viewBox="0 0 24 24" id="ic_phone" xmlns="http://www.w3.org/2000/svg"><path d="M19.592 24H0V4.408A4.407 4.407 0 014.408 0H24v19.59a4.407 4.407 0 01-4.408 4.408zM7.2 4.939h9.942V3.784a.749.749 0 00-.22-.531.762.762 0 00-.535-.224H7.952a.75.75 0 00-.752.751v1.155zm9.942 13.574H7.2v1.747a.75.75 0 00.751.751h8.429a.749.749 0 00.531-.22.762.762 0 00.224-.535v-1.747zm0-13H7.2v12.425h9.942V5.51zm-4.974 13.352a.869.869 0 11-.867.867.87.87 0 01.867-.867zm-2.01-14.433h4.016a.5.5 0 00.5-.5.5.5 0 00-.5-.5h-4.016a.5.5 0 00-.5.5.5.5 0 00.5.5zm6.226 17.158H7.952a1.31 1.31 0 01-.939-.392 1.34 1.34 0 01-.392-.939V3.78a1.337 1.337 0 011.331-1.33h8.432a1.337 1.337 0 011.33 1.33v16.476a1.337 1.337 0 01-1.33 1.334zM.715 23.281h18.877a3.684 3.684 0 003.689-3.691V.715H4.4A3.684 3.684 0 00.715 4.404v18.877z" fill="#fff"/></svg><svg viewBox="0 0 24 24.001" id="ic_pin" xmlns="http://www.w3.org/2000/svg"><path d="M19.593 23.644v-.357H.713V4.41A3.693 3.693 0 014.405.71h18.881v18.884a3.693 3.693 0 01-3.692 3.693v.714a4.406 4.406 0 004.405-4.407V0H4.405A4.406 4.406 0 00-.001 4.41v19.591h19.594v-.357zM16.086 9.056h-.344a4.041 4.041 0 11-1.18-2.846 4.018 4.018 0 011.18 2.851h.687a4.744 4.744 0 10-1.391 3.364 4.752 4.752 0 001.391-3.364h-.344zm-4.417 13.92a.354.354 0 01-.18-.123 67.68 67.68 0 01-6.277-9.788c-2.738-5.755.3-11.336 6.456-11.4 6.155.062 9.194 5.643 6.456 11.4a67.68 67.68 0 01-6.277 9.788.349.349 0 01-.18.123zm0-20.6c-5.234.062-8.311 4.812-6.056 9.846a34.807 34.807 0 002.078 3.85c1.531 2.5 3.233 4.835 3.978 5.831.745-1 2.447-3.327 3.978-5.831a34.865 34.865 0 002.078-3.85c2.256-5.029-.826-9.78-6.056-9.842z" fill="#fff"/></svg><svg fill="none" viewBox="0 0 9 6" id="ic_select" xmlns="http://www.w3.org/2000/svg"><path d="M1 1l3.5 3L8 1" stroke="#000" stroke-width="2"/></svg><svg fill="none" viewBox="0 0 18 36" id="ic_swiper-next" xmlns="http://www.w3.org/2000/svg"><path d="M1 35l15-17L1 1" stroke="#000" stroke-width="2"/></svg><svg fill="none" viewBox="0 0 18 36" id="ic_swiper-prev" xmlns="http://www.w3.org/2000/svg"><path d="M17 35L2 18 17 1" stroke="#000" stroke-width="2"/></svg><svg viewBox="0 0 16 14" id="ic_tg" xmlns="http://www.w3.org/2000/svg"><path d="M6.279 9.096l-.265 3.723c.379 0 .543-.163.74-.358l1.775-1.697 3.679 2.695c.674.376 1.15.178 1.332-.621l2.415-11.316c.214-.997-.36-1.388-1.018-1.143L.743 5.813c-.969.376-.954.916-.165 1.161l3.629 1.129 8.43-5.274c.396-.263.757-.118.46.145L6.279 9.096z"/></svg><svg viewBox="0 0 16 13" id="ic_tw" xmlns="http://www.w3.org/2000/svg"><path d="M16 1.543a6.872 6.872 0 01-1.645 1.696 9.368 9.368 0 01-.376 3.066 9.453 9.453 0 01-1.177 2.517 9.91 9.91 0 01-1.868 2.143c-.724.615-1.597 1.11-2.62 1.482a9.666 9.666 0 01-3.278.548A9.106 9.106 0 010 11.523c.237.027.5.04.792.04a6.42 6.42 0 004.07-1.4 3.214 3.214 0 01-1.908-.65 3.235 3.235 0 01-1.157-1.625c.223.034.43.051.62.051.29 0 .578-.037.862-.112a3.259 3.259 0 01-1.888-1.126A3.201 3.201 0 01.65 4.609v-.04c.46.257.954.395 1.482.416a3.275 3.275 0 01-1.066-1.168A3.195 3.195 0 01.67 2.254c0-.596.149-1.147.447-1.655a9.373 9.373 0 002.985 2.426A9.22 9.22 0 007.878 4.03a3.643 3.643 0 01-.081-.75c0-.908.318-1.68.954-2.316A3.169 3.169 0 0111.076 0c.948 0 1.746.345 2.396 1.036a6.43 6.43 0 002.081-.792 3.184 3.184 0 01-1.441 1.807A6.534 6.534 0 0016 1.543z"/></svg><svg viewBox="0 0 20 20" id="ic_vb" xmlns="http://www.w3.org/2000/svg"><path d="M17.745 1.948c-.524-.457-2.64-1.914-7.36-1.934 0 0-5.565-.316-8.276 2.043C.602 3.487.07 5.584.013 8.18c-.058 2.597-.128 7.464 4.819 8.784h.004l-.004 2.015s-.033.817.535.98c.684.204 1.088-.417 1.743-1.085.358-.367.852-.906 1.227-1.316 3.386.27 5.985-.348 6.281-.438.684-.21 4.552-.68 5.178-5.546.65-5.023-.313-8.194-2.051-9.627zm.572 9.26c-.531 4.062-3.666 4.32-4.242 4.496-.247.074-2.534.613-5.404.437 0 0-2.142 2.449-2.81 3.086-.218.207-.457.187-.452-.223 0-.27.016-3.347.016-3.347-.004 0-.004 0 0 0-4.193-1.102-3.946-5.246-3.9-7.413.045-2.168.477-3.945 1.754-5.14 2.294-1.973 7.019-1.68 7.019-1.68 3.99.016 5.902 1.156 6.347 1.539 1.47 1.195 2.22 4.054 1.672 8.245zm-5.725-3.156c.016.336-.515.36-.532.024-.045-.86-.469-1.278-1.342-1.324-.354-.02-.322-.524.029-.504 1.149.058 1.787.683 1.845 1.804zm.836.442c.041-1.656-1.05-2.953-3.122-3.098-.35-.023-.313-.527.037-.504 2.389.164 3.662 1.723 3.616 3.613-.004.336-.54.32-.531-.011zm1.936.523c.004.336-.532.34-.532.004-.024-3.183-2.26-4.918-4.975-4.937-.35-.004-.35-.504 0-.504 3.036.02 5.478 2.008 5.507 5.437zm-.466 3.832v.007c-.444.742-1.276 1.563-2.133 1.3l-.008-.01c-.87-.231-2.917-1.231-4.21-2.208-.667-.5-1.277-1.09-1.746-1.656a12.643 12.643 0 01-1.269-1.82c-.877-1.503-1.07-2.175-1.07-2.175-.277-.813.584-1.602 1.37-2.023h.009c.379-.188.741-.125.984.152 0 0 .511.578.73.863.205.266.481.691.626.93.25.425.094.859-.153 1.039l-.494.375c-.251.19-.218.546-.218.546s.733 2.629 3.472 3.293c0 0 .375.031.576-.207l.396-.469c.19-.234.646-.383 1.095-.144.606.324 1.376.828 1.887 1.285.288.222.354.562.156.921z"/></svg><svg viewBox="0 0 57.998 58" id="ic_vk" xmlns="http://www.w3.org/2000/svg"><path data-name="VK footer" d="M47.348 58H0V10.652A10.655 10.655 0 0110.65 0H58v47.348a10.647 10.647 0 01-10.65 10.65zm3.682-43.135c-.3-.33-2.27-.316-4.234-.3h-.084c-1.1.007-2.2.014-3.1.053a6.951 6.951 0 00-1.48.145c-.012 0-.549 1.419-1.248 3.278a152.668 152.668 0 01-1.268 3.28 40.043 40.043 0 01-2.8 5.777c-.913 1.463-1.868 2.391-2.783 2.371-2.292-.051-2.157-5.526-2.033-10.339l.039-1.663a14.733 14.733 0 00-.169-3.056 1.514 1.514 0 00-.207-.648 5.391 5.391 0 00-2.183-1.039 9.555 9.555 0 00-3.95-.137 5.111 5.111 0 00-2.969 1.453l-.123.154c1.5.482 3.049 2.4 2.316 12.411a5.751 5.751 0 01-.68 2.092 2.106 2.106 0 01-1.1.945 1.828 1.828 0 01-1.709-.333 9.4 9.4 0 01-2.477-3.552c-.272-.566-.74-1.875-1.3-3.439-1.166-3.265-2.771-7.753-2.906-7.755l-.672-.024c-3.2-.116-6.218-.227-7.15.443-.178.128.243 1.586 1.106 3.981a124.294 124.294 0 005.273 11.869 43.5 43.5 0 005.948 9.531 14.569 14.569 0 007.9 4.9 21.6 21.6 0 003.35.125 4.317 4.317 0 001.653-.3c.128-.08-.084-.629-.029-1.516.147-2.379.354-5.642 2.547-6.194 1.147-.289 2.776 1.9 4.417 4.116a19.056 19.056 0 002.979 3.557 5.609 5.609 0 001.742.4 20.7 20.7 0 003.02.084c.366-.014.769-.019 1.166-.024 1.574-.017 3.075-.034 3.193-.964.289-2.3-2.092-5.275-4.14-7.835-1.581-1.976-2.984-3.731-3.1-5.136-.14-1.7 1.362-4.07 2.824-6.374.586-.921 1.164-1.834 1.576-2.593a40.487 40.487 0 002.432-5.068c.482-1.311.713-2.345.4-2.68zm-4.246-2.055c2.357-.017 4.714-.034 5.54.868.851.925.651 2.574-.048 4.478a42.671 42.671 0 01-2.542 5.3c-.484.892-1.056 1.791-1.632 2.7-1.306 2.058-2.649 4.176-2.557 5.287.072.877 1.316 2.434 2.716 4.186 2.261 2.829 4.895 6.121 4.511 9.153-.308 2.449-2.559 2.475-4.921 2.5-.361 0-.728.007-1.111.024a22.525 22.525 0 01-3.282-.092 7.154 7.154 0 01-2.355-.59c-.911-.47-2.253-2.28-3.584-4.073-1.289-1.735-2.567-3.456-2.579-3.453-.947.239-1.1 2.757-1.219 4.591-.087 1.391-.157 2.5-.79 2.9a5.619 5.619 0 01-2.5.564 23.709 23.709 0 01-3.726-.147l-.075-.01a16.26 16.26 0 01-8.859-5.461 44.975 44.975 0 01-6.208-9.925 125.8 125.8 0 01-5.35-12.055c-1.147-3.184-1.4-5.338-.477-6 1.422-1.022 4.736-.9 8.237-.774l.67.024c1.34.055 3.174 5.186 4.509 8.919.549 1.535 1.007 2.82 1.224 3.268a8.023 8.023 0 001.911 2.885l.133.1a.544.544 0 00.161-.2A3.531 3.531 0 0023 26.48c.759-10.382-.68-10.589-1.672-10.715l-.308-.041-.942-.161.236-.923a4.259 4.259 0 01.923-1.747 6.843 6.843 0 013.988-2.032 11.336 11.336 0 014.692.157 7.135 7.135 0 012.9 1.417 2.8 2.8 0 01.786 1.632 16.642 16.642 0 01.2 3.432l-.039 1.672c-.1 3.988-.214 8.526.308 8.538.2 0 .663-.6 1.253-1.545a37.974 37.974 0 002.661-5.507c.472-1.166.887-2.261 1.253-3.239.836-2.217 1.477-3.909 2.1-4.227a6.529 6.529 0 012.2-.333 92.302 92.302 0 013.167-.053h.084zM1.735 56.265h45.613a8.919 8.919 0 008.917-8.917V1.735H10.652a8.911 8.911 0 00-8.917 8.915v45.612z"/></svg><svg viewBox="0 0 16 17" id="ic_wa" xmlns="http://www.w3.org/2000/svg"><path d="M9.719 9.385c.27-.34.451-.51.541-.51.09 0 .428.153 1.01.458.591.306.904.49.938.552.014.035.021.087.021.157 0 .229-.059.493-.177.791-.111.271-.358.5-.74.688-.381.18-.736.27-1.062.27-.396 0-1.056-.215-1.98-.645a5.945 5.945 0 01-1.77-1.23C6 9.41 5.486 8.768 4.958 7.99c-.5-.743-.746-1.417-.74-2.021v-.084c.022-.632.279-1.18.772-1.645a.788.788 0 01.541-.23c.042 0 .104.007.188.021.083.007.15.01.198.01.132 0 .222.025.27.074.056.041.112.135.167.28.056.14.17.445.344.918.174.472.26.732.26.78 0 .147-.121.348-.364.605-.236.25-.354.41-.354.48 0 .048.017.1.052.155.236.507.59.983 1.062 1.427.39.368.913.72 1.573 1.053.083.048.16.072.23.072.103 0 .29-.166.562-.5zm-1.573 5.01a6.33 6.33 0 002.531-.52 6.581 6.581 0 002.094-1.396 6.613 6.613 0 001.396-2.083c.347-.813.52-1.66.52-2.542a6.33 6.33 0 00-.52-2.531 6.582 6.582 0 00-1.396-2.094 6.581 6.581 0 00-2.094-1.396 6.329 6.329 0 00-2.531-.52c-.882 0-1.73.173-2.542.52-.805.348-1.5.813-2.083 1.396a6.582 6.582 0 00-1.396 2.094 6.329 6.329 0 00-.52 2.531c0 1.41.416 2.688 1.25 3.833l-.824 2.428 2.521-.803a6.406 6.406 0 003.594 1.084zM5.094.626A7.669 7.669 0 018.146 0c1.062 0 2.076.208 3.041.625a7.918 7.918 0 012.51 1.677 7.918 7.918 0 011.678 2.51c.417.966.625 1.98.625 3.042 0 1.063-.208 2.08-.625 3.052a7.947 7.947 0 01-1.677 2.5 7.916 7.916 0 01-2.51 1.677 7.594 7.594 0 01-3.042.625 7.735 7.735 0 01-3.802-.979L0 16.125l1.417-4.219A7.666 7.666 0 01.292 7.854c0-1.062.208-2.076.625-3.042a7.917 7.917 0 011.677-2.51 7.948 7.948 0 012.5-1.677z"/></svg><svg viewBox="0 0 24 24.002" id="ic_watch" xmlns="http://www.w3.org/2000/svg"><path d="M19.595 23.645v-.357H.714V4.41A3.69 3.69 0 014.405.718h18.881v18.879a3.69 3.69 0 01-3.692 3.692v.714A4.4 4.4 0 0024 19.595V0H4.405A4.4 4.4 0 000 4.41v19.592h19.595v-.357zm-6.976-11.406a.662.662 0 11-.856-.852l2.073-5.971a.428.428 0 11.81.277L12.7 11.301l3.234-1.144a.43.43 0 11.285.81l-3.6 1.274zM12 2.888a9.114 9.114 0 11-6.445 2.669A9.087 9.087 0 0112 2.888zm5.939 3.177a8.4 8.4 0 102.46 5.939 8.375 8.375 0 00-2.46-5.939z" fill="#fff"/></svg></svg>